<svg xmlns="http://www.w3.org/2000/svg" width="609" height="639.764" viewBox="0 0 609 639.764"><g transform="translate(-532 -216.236)"><path d="M957.785,800.383c-1.463,179.682-43.565,224.855-290.2,227.666-191.309,2.18-318.31-139.335-318.31-319.013s61.641-295.122,252.962-295.122c95.661,0,215.421,62.143,278.258,120.859C966.218,614.878,958.517,710.547,957.785,800.383Z" transform="translate(182.728 -197.678)" fill="#fc4c4d"/><rect width="194" height="626" transform="translate(947 230)" fill="rgba(255,245,230,0.6)"/><g transform="translate(-814.065 -62.15)" opacity="0.76"><path d="M1603.243,885.287c-83.781-150.107,27.926-382.253,27.926-382.253" transform="translate(38.576 7.259)" fill="none" stroke="#fff" stroke-miterlimit="10" stroke-width="2"/><path d="M1581.137,714.921s90.621-91.969,127.417-94.254" transform="translate(50.209 158.424)" fill="none" stroke="#fff" stroke-miterlimit="10" stroke-width="2"/><path d="M1607.217,639.233c31.856,10.349,67.068,5.978,95.748,6.448" transform="translate(83.723 182.282)" fill="none" stroke="#fff" stroke-miterlimit="10" stroke-width="2"/><line x1="54.219" y1="53.869" transform="translate(1558.037 735.456)" fill="none" stroke="#fff" stroke-miterlimit="10" stroke-width="2"/><path d="M1603.449,642.669s-40.311-60.668-55.922-70.124" transform="translate(7.019 96.585)" fill="none" stroke="#fff" stroke-miterlimit="10" stroke-width="2"/><path d="M1577.317,571.017s69.3,4.177,92.508,0" transform="translate(45.3 94.621)" fill="none" stroke="#fff" stroke-miterlimit="10" stroke-width="2"/><path d="M1584.956,541.987s70.283-6.62,82.036-12.218" transform="translate(55.117 41.615)" fill="none" stroke="#fff" stroke-miterlimit="10" stroke-width="2"/><path d="M1570.443,508.381c8.923,27.181,36.652,59.345,36.652,59.345" transform="translate(36.467 14.131)" fill="none" stroke="#fff" stroke-miterlimit="10" stroke-width="2"/><ellipse cx="12.071" cy="11.624" rx="12.071" ry="11.624" transform="translate(1712.401 557.74)" fill="#fff"/><ellipse cx="12.071" cy="11.624" rx="12.071" ry="11.624" transform="translate(1753.085 768.76)" fill="#fff"/><ellipse cx="12.071" cy="11.624" rx="12.071" ry="11.624" transform="translate(1777.227 817.491)" fill="#fff"/><ellipse cx="12.071" cy="11.624" rx="12.071" ry="11.624" transform="translate(1548.324 728.97)" fill="#fff"/><ellipse cx="12.071" cy="11.624" rx="12.071" ry="11.624" transform="translate(1542.065 656.097)" fill="#fff"/><ellipse cx="12.071" cy="11.624" rx="12.071" ry="11.624" transform="translate(1701.224 652.967)" fill="#fff"/><ellipse cx="12.071" cy="11.624" rx="12.071" ry="11.624" transform="translate(1591.243 512.585)" fill="#fff"/><ellipse cx="12.071" cy="11.624" rx="12.071" ry="11.624" transform="translate(1661.881 497.385)" fill="#fff"/></g></g></svg>