<svg fill="none" xmlns="http://www.w3.org/2000/svg" viewBox="0 0 446 449"><mask id="mask0" maskUnits="userSpaceOnUse" x="0" y="0" width="446" height="449"><path d="M444.69 282.42c-1.07 131.3-31.84 164.32-212.08 166.38C92.81 450.38 0 346.97 0 215.67S45.05 0 184.86 0c69.9 0 157.42 45.41 203.34 88.32 62.65 58.54 57.02 128.45 56.49 194.1z" fill="#fff"/></mask><g mask="url(#mask0)"><path d="M444.69 282.42c-1.07 131.3-31.84 164.32-212.08 166.38C92.81 450.38 0 346.97 0 215.67S45.05 0 184.86 0c69.9 0 157.42 45.41 203.34 88.32 62.65 58.54 57.02 128.45 56.49 194.1z" fill="#FC4C4D"/><path d="M445.23 9.87h-142v458h142v-458z" fill="#FFF5E6" fill-opacity=".6"/><g opacity=".44"><path opacity=".44" d="M166.24 448.34c-54.6-97.83 18.2-249.13 18.2-249.13" stroke="#fff" stroke-width="2" stroke-miterlimit="10"/><path opacity=".44" d="M159.42 435.83s59.06-59.94 83.04-61.43" stroke="#fff" stroke-width="2" stroke-miterlimit="10"/><path opacity=".44" d="M198.26 402.05c20.76 6.74 43.7 3.9 62.4 4.2" stroke="#fff" stroke-width="2" stroke-miterlimit="10"/><path opacity=".44" d="M146.98 381.07l-35.34-35.11" stroke="#fff" stroke-width="2" stroke-miterlimit="10"/><path opacity=".44" d="M145.81 348.43s-26.27-39.54-36.44-45.7" stroke="#fff" stroke-width="2" stroke-miterlimit="10"/><path opacity=".44" d="M153.73 300.46s45.17 2.72 60.29 0" stroke="#fff" stroke-width="2" stroke-miterlimit="10"/><path opacity=".44" d="M165.1 247s45.81-4.32 53.47-7.97" stroke="#fff" stroke-width="2" stroke-miterlimit="10"/><path opacity=".44" d="M143.5 207.18c5.8 17.71 23.88 38.67 23.88 38.67" stroke="#fff" stroke-width="2" stroke-miterlimit="10"/><path opacity=".44" d="M220.11 245.29c4.35 0 7.87-3.4 7.87-7.58s-3.52-7.57-7.87-7.57c-4.34 0-7.87 3.39-7.87 7.57 0 4.19 3.53 7.58 7.87 7.58z" fill="#fff"/><path opacity=".44" d="M246.63 382.81c4.34 0 7.86-3.39 7.86-7.57 0-4.19-3.52-7.58-7.86-7.58-4.35 0-7.87 3.4-7.87 7.58s3.52 7.57 7.87 7.57z" fill="#fff"/><path opacity=".44" d="M262.36 414.57c4.34 0 7.87-3.39 7.87-7.57 0-4.19-3.53-7.58-7.87-7.58-4.35 0-7.87 3.4-7.87 7.58s3.52 7.57 7.87 7.57z" fill="#fff"/><path opacity=".44" d="M113.18 356.88c4.34 0 7.86-3.39 7.86-7.57 0-4.19-3.52-7.58-7.86-7.58-4.35 0-7.87 3.4-7.87 7.58s3.52 7.57 7.87 7.57z" fill="#fff"/><path opacity=".44" d="M109.1 309.39c4.34 0 7.87-3.4 7.87-7.58s-3.53-7.57-7.87-7.57c-4.35 0-7.87 3.39-7.87 7.57 0 4.19 3.52 7.58 7.87 7.58z" fill="#fff"/><path opacity=".44" d="M212.83 307.35c4.34 0 7.86-3.4 7.86-7.58s-3.52-7.57-7.86-7.57c-4.35 0-7.87 3.39-7.87 7.57 0 4.19 3.52 7.58 7.87 7.58z" fill="#fff"/><path opacity=".44" d="M141.15 215.86c4.34 0 7.87-3.4 7.87-7.58s-3.53-7.57-7.87-7.57-7.87 3.39-7.87 7.57c0 4.19 3.53 7.58 7.87 7.58z" fill="#fff"/><path opacity=".44" d="M187.19 205.95c4.34 0 7.86-3.39 7.86-7.57 0-4.19-3.52-7.58-7.86-7.58-4.35 0-7.87 3.4-7.87 7.58s3.52 7.57 7.87 7.57z" fill="#fff"/></g></g></svg>