<svg fill="none" xmlns="http://www.w3.org/2000/svg" viewBox="0 0 605 353"><path d="M603.73 221.74c-1.45 103.1-43.23 129.01-287.93 130.63C126 353.62 0 272.42 0 169.33 0 66.23 61.15 0 250.97 0c94.9 0 213.73 35.66 276.07 69.34 85.06 45.97 77.42 100.86 76.69 152.4z" fill="#B9DB86"/><mask id="mask0" maskUnits="userSpaceOnUse" x="-1" y="0" width="606" height="353"><path d="M603.73 221.74c-1.45 103.1-43.23 129.01-287.93 130.63C126 353.62 0 272.42 0 169.33 0 66.23 61.15 0 250.97 0c94.9 0 213.73 35.66 276.07 69.34 85.06 45.97 77.42 100.86 76.69 152.4z" fill="#B9DB86"/></mask><g mask="url(#mask0)" fill="#fff"><path d="M604 37H474v315h130V37z" fill-opacity=".8"/><path d="M314.03 351.44s9.97-39.69 3.98-55.67c-5.63-15.01-127.49-89.63-111.34-113.33 29.15-42.8 85.54 60.37 89.47 65.61 47.7 63.7 8.02-167.76 59.64-165.03 74.77 3.96-17.23 140.12-21.87 192.87-2.44 27.8 98.3-111.23 113.09-81.85 29.21 58.07-42.32 58.2-71.42 83.32-20.47 17.68-44.88 40.39-39.68 82 1.32 10.58-21.87-7.92-21.87-7.92z"/></g></svg>