<svg fill="none" xmlns="http://www.w3.org/2000/svg" viewBox="0 0 412 241"><mask id="mask0" maskUnits="userSpaceOnUse" x="-1" y="0" width="413" height="241"><path d="M411.39 151.1c-.99 70.25-29.45 87.9-196.2 89C85.86 240.97 0 185.64 0 115.39S41.68 0 171.02 0c64.67 0 145.64 24.3 188.12 47.25 57.96 31.32 52.75 68.72 52.26 103.85z" fill="#fff"/></mask><g mask="url(#mask0)"><path d="M411.39 151.1c-.99 70.25-29.45 87.9-196.2 89C85.86 240.97 0 185.64 0 115.39S41.68 0 171.02 0c64.67 0 145.64 24.3 188.12 47.25 57.96 31.32 52.75 68.72 52.26 103.85z" fill="#B9DB86"/><path d="M443.67 6h-201v243h201V6z" fill="#fff" fill-opacity=".8"/><path d="M166.4 233.66s5.86-23.36 2.34-32.76c-3.31-8.84-75.04-52.76-65.54-66.7 17.16-25.2 50.36 35.53 52.67 38.62 28.07 37.49 4.72-98.74 35.1-97.14 44 2.33-10.14 82.47-12.87 113.52-1.44 16.36 57.86-65.47 66.56-48.17 17.2 34.18-24.91 34.25-42.04 49.04-12.04 10.4-26.41 23.77-23.35 48.26.78 6.23-12.87-4.67-12.87-4.67z" fill="#fff"/></g></svg>