<svg width="0" height="0" class="hidden">

	<symbol xmlns="http://www.w3.org/2000/svg" viewBox="0 0 55 55" id="play"><path d="M27.5 55a27.5 27.5 0 100-55 27.5 27.5 0 000 55z" fill="#fff"/><path d="M31.8 27.5l-6.4-3.9v7.8l6.4-3.9zm5.8 0a2 2 0 01-1 1.7l-12.2 7.5a2 2 0 01-3-1.8V20.1a2 2 0 013-1.8l12.3 7.5c.6.4 1 1 1 1.7z"/></symbol>

	<symbol xmlns="http://www.w3.org/2000/svg" viewBox="0 0 42 42" id="play-reverse"><path d="M21 42a21 21 0 100-42 21 21 0 000 42z" fill="#fff"/><path d="M17.78 21L23 24.17v-6.34L17.78 21zm-3.93 0c0-.66.32-1.32.97-1.71l8.14-4.95A2 2 0 0126 16.05v9.9a2 2 0 01-3.04 1.7l-8.14-4.94a1.98 1.98 0 01-.97-1.71z"/></symbol>

	<symbol xmlns="http://www.w3.org/2000/svg" viewBox="0 0 39 27" id="youtube"><path d="M37.6 4.22A4.83 4.83 0 0034.2.81c-3-.81-15-.81-15-.81s-12 0-15 .8A4.83 4.83 0 00.8 4.23c-.8 3.02-.8 9.3-.8 9.3s0 6.3.8 9.3a4.75 4.75 0 003.4 3.37c3 .8 15 .8 15 .8s12 0 15-.8a4.75 4.75 0 003.4-3.37c.8-3 .8-9.3.8-9.3s0-6.28-.8-9.3zM15.27 19.24V7.82l10.04 5.7-10.04 5.72z"/></symbol>

	<symbol xmlns="http://www.w3.org/2000/svg" viewBox="0 0 35 35" id="facebook"><path d="M34.88 17.44A17.44 17.44 0 1014.7 34.67v-12.2h-4.43v-5.03h4.43V13.6c0-4.37 2.6-6.79 6.59-6.79 1.3.02 2.6.13 3.9.34v4.29H23a2.52 2.52 0 00-2.84 2.72v3.28h4.83l-.77 5.04h-4.06v12.19a17.44 17.44 0 0014.72-17.23z"/></symbol>

	<symbol xmlns="http://www.w3.org/2000/svg" viewBox="0 0 35 35" id="spotify"><path d="M17.44 0a17.44 17.44 0 100 34.88 17.44 17.44 0 000-34.88zm7.08 25.66c-.27 0-.53-.1-.75-.25-4.4-2.65-9.5-2.76-14.54-1.73-.27.09-.55.15-.83.18a1.1 1.1 0 01-1.12-1.1 1.11 1.11 0 01.96-1.19C14 20.3 19.88 20.41 24.9 23.41a1.19 1.19 0 01.68 1.16 1.06 1.06 0 01-1.07 1.09zm1.89-4.61c-.31-.02-.61-.13-.87-.3a22.79 22.79 0 00-16.77-2.07c-.27.1-.55.17-.84.19a1.37 1.37 0 01-1.36-1.37 1.38 1.38 0 011.09-1.45c2.23-.66 4.55-.98 6.87-.96a24.61 24.61 0 0112.45 3.2 1.47 1.47 0 01.8 1.39 1.36 1.36 0 01-1.37 1.37zm2.18-5.36c-.32 0-.64-.1-.9-.28-5.01-2.98-13.97-3.7-19.76-2.08-.3.1-.6.16-.9.18a1.62 1.62 0 01-1.64-1.66 1.66 1.66 0 011.22-1.68c2.69-.75 5.47-1.1 8.26-1.07 5.13 0 10.51 1.07 14.44 3.36a1.65 1.65 0 01.91 1.59 1.63 1.63 0 01-1.63 1.64z"/></symbol>

	<symbol xmlns="http://www.w3.org/2000/svg" viewBox="0 0 32 33" id="linkedin"><path d="M29.5.9h-27A2.26 2.26 0 00.24 3.17v26.95a2.26 2.26 0 002.24 2.28H29.5a2.27 2.27 0 002.25-2.27V3.16A2.27 2.27 0 0029.5.9zm-19.73 27H5.1V12.86h4.68V27.9h-.01zM7.44 10.8a2.7 2.7 0 110-5.41 2.7 2.7 0 010 5.41zM27.27 27.9H22.6v-7.32c0-1.74-.03-3.98-2.42-3.98-2.44 0-2.8 1.9-2.8 3.86v7.44H12.7V12.86h4.48v2.06h.06a4.92 4.92 0 014.43-2.43c4.72 0 5.6 3.12 5.6 7.17v8.24z"/></symbol>

	<symbol xmlns="http://www.w3.org/2000/svg" viewBox="0 0 33 33" id="whatsapp"><path d="M16.8 0A16.14 16.14 0 00.6 16.08c0 2.93.8 5.8 2.32 8.3L0 33l8.97-2.85A16.23 16.23 0 0033 16.08 16.14 16.14 0 0016.8 0zm8.06 22.19a4.18 4.18 0 01-2.87 1.84c-.75.04-.78.6-4.92-1.2a16.9 16.9 0 01-6.83-6.46 7.94 7.94 0 01-1.53-4.3 4.59 4.59 0 011.58-3.39 1.58 1.58 0 011.12-.47h.78c.24.01.6-.05.92.79.31.83 1.06 2.88 1.16 3.09a.75.75 0 010 .72c-.12.24-.26.47-.44.67-.22.23-.46.52-.65.7-.2.17-.44.4-.21.82a11.3 11.3 0 005.44 5.09c.4.22.65.19.9-.07a22.1 22.1 0 001.37-1.56c.3-.4.57-.32.94-.17.38.15 2.37 1.22 2.78 1.44.4.22.68.34.77.5a3.4 3.4 0 01-.31 1.96z"/></symbol>

	<symbol xmlns="http://www.w3.org/2000/svg" viewBox="0 0 27 30" id="share"><path d="M22.5 21.1c-1 0-2.1.4-3 1.2L9 16 9 15l-.1-1 10.5-6.2a4.5 4.5 0 10-1.3-2.2L7.6 11.7a4.5 4.5 0 100 6.6l10.6 6.2A4.2 4.2 0 0019 28a4.4 4.4 0 103.6-6.8z"/></symbol>

</svg>